<?xml version="1.0" encoding="utf-8"?>
<!-- Generator: Adobe Illustrator 22.0.1, SVG Export Plug-In . SVG Version: 6.00 Build 0)  -->
<svg version="1.1" id="Capa_1" xmlns="http://www.w3.org/2000/svg" xmlns:xlink="http://www.w3.org/1999/xlink" x="0px" y="0px"
	 viewBox="0 0 1162.3 215.9" style="enable-background:new 0 0 1162.3 215.9;" xml:space="preserve">
<style type="text/css">
	.st0{fill:#FFFFFF;}
	.st1{fill:none;stroke:#FFFFFF;stroke-width:16;stroke-linecap:round;stroke-miterlimit:10;}
</style>
<g>
	<g>
		<path class="st0" d="M2.9,161C1,159.1,0,156.7,0,153.9v-95c0-2.8,1-5.2,2.9-7.2c1.9-2,4.3-3,7.1-3c2.8,0,5.2,1,7.2,3
			c2,2,3,4.4,3,7.2V68c4.1-5.9,9.1-10.8,14.9-14.6c5.8-3.8,13.4-5.8,22.7-5.8c8.3,0,15.4,2.2,21.3,6.6c5.9,4.4,10.1,9.8,12.6,16.2
			c9.2-15.2,22.7-22.8,40.8-22.8c8.3,0,15.2,2.1,20.7,6.2c5.5,4.1,9.6,9.5,12.3,15.9c2.7,6.5,4,13.3,4,20.4v63.8c0,2.8-1,5.2-3,7.1
			c-2,1.9-4.4,2.9-7.2,2.9c-2.8,0-5.2-1-7.1-2.9c-1.9-1.9-2.9-4.3-2.9-7.1V94.1c0-9.6-1.7-16.6-5.1-21.2c-3.4-4.5-9.2-6.8-17.5-6.8
			c-7.5,0-13.8,2-18.7,5.9c-4.9,3.9-9.3,9-13.2,15.4v66.4c0,2.8-1,5.2-3,7.1s-4.4,2.9-7.2,2.9c-2.8,0-5.2-1-7.1-2.9
			c-1.9-1.9-2.9-4.3-2.9-7.1V94.1c0-9.6-1.7-16.6-5.1-21.2c-3.4-4.5-9.2-6.8-17.5-6.8c-7.5,0-13.8,2-18.7,5.9
			c-4.9,3.9-9.3,9-13.2,15.4v66.4c0,2.8-1,5.2-3,7.1c-2,1.9-4.4,2.9-7.2,2.9C7.2,163.9,4.8,162.9,2.9,161z"/>
		<path class="st0" d="M223.2,157.7c-8.6-4.9-15.2-11.8-19.8-20.7c-4.7-8.9-7-19.2-7-30.7c0-11.5,2.3-21.7,7-30.7
			c4.7-8.9,11.3-15.8,19.8-20.7c8.6-4.9,18.5-7.3,29.9-7.3c11.2,0,21.1,2.4,29.7,7.3c8.6,4.9,15.2,11.8,19.9,20.7
			c4.7,8.9,7.1,19.2,7.1,30.7c0,11.5-2.4,21.7-7.1,30.7c-4.7,8.9-11.4,15.8-19.9,20.7c-8.6,4.9-18.5,7.3-29.7,7.3
			C241.8,165,231.8,162.6,223.2,157.7z M270.5,142.4c5.5-2.8,10.1-7.2,13.7-13.3c3.6-6.1,5.4-13.7,5.4-23c0-9.2-1.8-16.8-5.4-22.8
			c-3.6-6.1-8.2-10.4-13.7-13.2c-5.5-2.7-11.3-4.1-17.4-4.1c-6.2,0-12.1,1.4-17.6,4.1c-5.5,2.7-10.1,7.1-13.6,13.2
			c-3.5,6.1-5.3,13.7-5.3,22.8c0,9.3,1.8,17,5.3,23c3.5,6.1,8.1,10.5,13.6,13.3c5.5,2.8,11.4,4.2,17.6,4.2
			C259.2,146.6,265,145.2,270.5,142.4z"/>
		<path class="st0" d="M369.2,161.6c-2.2-1.6-3.8-3.5-4.9-5.9l-38.5-92.1c-0.7-1.8-1.1-3.3-1.1-4.7c0-2.8,1-5.2,2.9-7.2
			c1.9-2,4.3-3,7.1-3c1.9,0,3.7,0.6,5.4,1.7c1.7,1.1,2.9,2.5,3.7,4.1l33.9,85.9l33.9-85.9c0.7-1.6,2-3,3.7-4.1
			c1.7-1.1,3.5-1.7,5.4-1.7c2.8,0,5.2,1,7.1,3c1.9,2,2.9,4.4,2.9,7.2c0,1.3-0.4,2.9-1.1,4.7l-38.5,92.1c-1,2.4-2.7,4.3-4.9,5.9
			c-2.2,1.5-4.7,2.3-7.3,2.3h-2.2C373.8,163.9,371.4,163.1,369.2,161.6z"/>
		<path class="st0" d="M455.4,23.5c-2.2-2.2-3.3-4.9-3.3-8v-0.9c0-3.1,1.1-5.8,3.3-8s4.9-3.3,8-3.3h1.3c3.1,0,5.8,1.1,8,3.3
			s3.3,4.9,3.3,8v0.9c0,3.1-1.1,5.8-3.3,8s-4.9,3.3-8,3.3h-1.3C460.2,26.8,457.6,25.7,455.4,23.5z M456.7,161
			c-1.9-1.9-2.9-4.3-2.9-7.1v-95c0-2.8,1-5.2,2.9-7.2c1.9-2,4.3-3,7.1-3c3,0,5.4,1,7.3,2.9c1.9,1.9,2.9,4.4,2.9,7.3v95
			c0,2.8-1,5.2-3,7.1c-2,1.9-4.4,2.9-7.2,2.9C461,163.9,458.6,162.9,456.7,161z"/>
		<path class="st0" d="M517.3,149.6c-10.1-10.3-15.2-24.7-15.2-43.3c0-10.5,1.9-20.2,5.8-29c3.8-8.9,9.7-16,17.7-21.5
			c8-5.5,17.8-8.2,29.5-8.2c10.9,0,20.4,2.5,28.3,7.6c8,5.1,14,11.9,18.2,20.4c4.1,8.5,6.2,17.8,6.2,27.8c0,2.8-0.9,5.2-2.8,7.1
			c-1.8,1.9-4.3,2.9-7.4,2.9h-75.1c1.2,10.3,5,18.4,11.5,24.1c6.5,5.8,15.6,8.6,27.2,8.6c6.2,0,11.6-0.6,16.3-1.8
			c4.7-1.2,9.2-2.9,13.6-5.1c1.2-0.6,2.5-0.9,4-0.9c2.4,0,4.4,0.8,6.2,2.4c1.8,1.6,2.7,3.7,2.7,6.2c0,3.2-1.9,6-5.8,8.2
			c-5.8,3.3-11.4,5.7-17.1,7.3c-5.6,1.6-12.8,2.4-21.7,2.4C541.4,165,527.4,159.9,517.3,149.6z M587.8,97
			c-0.4-7.2-2.3-13.3-5.6-18.2c-3.3-4.9-7.4-8.5-12.3-10.7c-4.9-2.3-9.8-3.4-14.8-3.4c-5,0-10,1.1-14.8,3.4
			c-4.9,2.3-8.9,5.9-12.2,10.7c-3.2,4.9-5.1,10.9-5.5,18.2H587.8z"/>
		<path class="st0" d="M661.1,212.6c-8.7-2.2-15.9-4.9-21.5-8.2c-2.7-1.6-4-4.2-4-7.8c0-2.4,0.8-4.5,2.5-6.3
			c1.7-1.8,3.8-2.8,6.3-2.8c1.2,0,2.5,0.3,4,0.9c11.2,5.6,23.4,8.4,36.5,8.4c22.6,0,33.9-12,33.9-36.1V146
			c-10.5,11.2-23.1,16.8-37.9,16.8c-8.7,0-17.2-2.2-25.4-6.5c-8.2-4.4-15-10.9-20.3-19.5s-8-19.2-8-31.6c0-12.4,2.7-22.9,8-31.6
			s12.1-15.1,20.3-19.5c8.2-4.4,16.6-6.5,25.4-6.5c14.8,0,27.4,5.6,37.9,16.8v-5.5c0-2.8,1-5.2,2.9-7.2c1.9-2,4.3-3,7.1-3
			c2.8,0,5.2,1,7.2,3c2,2,3,4.4,3,7.2v99c0,18.6-4.5,32.9-13.5,43c-9,10-21.9,15.1-38.5,15.1C678.4,215.9,669.8,214.8,661.1,212.6z
			 M703.6,140c5.3-3,10.4-6.9,15.3-12V82.4c-4.9-5-10-9-15.3-12c-5.3-3-11.4-4.4-18.4-4.4c-11.1,0-20.1,3.4-27.1,10.1
			c-7,6.7-10.5,16.4-10.5,29.1c0,12.7,3.5,22.4,10.5,29.1c7,6.7,16.1,10.1,27.1,10.1C692.2,144.4,698.3,142.9,703.6,140z"/>
		<path class="st0" d="M1069.3,161c-1.9-1.9-2.9-4.3-2.9-7.1V10.2c0-2.8,1-5.2,2.9-7.2c1.9-2,4.3-3,7.1-3c2.8,0,5.2,1,7.2,3
			s3,4.4,3,7.2v90.6l52.7-48.7c2.2-1.9,4.4-2.9,6.6-2.9c3.4,0,5.9,1,7.4,2.9c1.5,1.9,2.3,4.2,2.3,6.9c0,2.5-1.3,5-3.8,7.5L1120,95
			l40.1,53.2c1.5,1.9,2.2,3.9,2.2,6c0,3-1,5.3-2.9,7.1c-1.9,1.8-4.4,2.7-7.3,2.7c-1.5,0-3-0.4-4.4-1.1c-1.5-0.7-2.7-1.8-3.8-3.1
			l-38.1-51.8l-19.3,17.5v28.6c0,2.8-1,5.2-3,7.1s-4.4,2.9-7.2,2.9C1073.6,163.9,1071.2,162.9,1069.3,161z"/>
	</g>
	<g>
		<line class="st1" x1="784.3" y1="105.7" x2="814" y2="105.7"/>
	</g>
	<g>
		<line class="st1" x1="884" y1="81.8" x2="921.8" y2="81.8"/>
	</g>
	<g>
		<line class="st1" x1="756.5" y1="81.8" x2="786.9" y2="81.8"/>
	</g>
	<g>
		<line class="st1" x1="1018.2" y1="81.8" x2="1048.5" y2="81.8"/>
	</g>
	<circle class="st1" cx="833.2" cy="106.7" r="51.8"/>
	<circle class="st1" cx="971.4" cy="106.7" r="51.8"/>
	<g>
		<line class="st1" x1="921.3" y1="105.7" x2="951" y2="105.7"/>
	</g>
</g>
</svg>
